# xmcd
#
# Track frame offsets: 
#        182
#        16230
#        35870
#        53950
#        77320
#        95777
#        115470
#        130660
#        150190
#        173310
#        199757
#        222977
#        246382
#
# Disc length: 3657 seconds
#
# Revision: 5
# Processed by: cddbd v1.5.2PL0 Copyright (c) Steve Scherf et al.
# Submitted via: ExactAudioCopy v1.0b3
#
DISCID=a60e470d
DTITLE=Tamia - Tamia
DYEAR=1998
DGENRE=R&B
TTITLE0=Imagination (Feat. Jermaine Dupri)
TTITLE1=So Into You
TTITLE2=Never Gonna Let You Go
TTITLE3=Falling For You
TTITLE4=Show Me Love
TTITLE5=Rain On Me
TTITLE6=Is That You? (Feat. Jermaine Dupri)
TTITLE7=Who Do You Tell?
TTITLE8=Gotta Move On
TTITLE9=This Time It's Love
TTITLE10=Loving You Still
TTITLE11=Careless Whisper
TTITLE12=You Put A Move On My Heart (Bonus Track)
EXTD=YEAR: 1998
EXTT0=
EXTT1=
EXTT2=
EXTT3=
EXTT4=
EXTT5=
EXTT6=
EXTT7=
EXTT8=
EXTT9=
EXTT10=
EXTT11=
EXTT12=
PLAYORDER=
